<?xml version="1.0" encoding="utf-8" ?>
<svg xmlns="http://www.w3.org/2000/svg" xmlns:xlink="http://www.w3.org/1999/xlink" width="160" height="160">
	<defs>
		<linearGradient id="gradient_0" gradientUnits="userSpaceOnUse" x1="409.1489" y1="169.56302" x2="305.16684" y2="191.72678">
			<stop offset="0" stop-color="#363E54"/>
			<stop offset="1" stop-color="#4C4B72"/>
		</linearGradient>
	</defs>
	<path fill="url(#gradient_0)" transform="matrix(0.312287 -0.00189736 0.00188925 0.310953 0 0.971451)" d="M306.787 202.207L309.422 175.085C309.988 167.846 308.98 158.501 318 155.941L318.291 155.85C319.926 155.365 322.259 155.59 323.978 155.582L392.059 155.525C405.018 155.488 407.937 155.714 408.916 168.5L409.898 180.125C410.533 187.457 411.734 195.021 411.771 202.372C409.206 202.554 406.128 202.229 403.52 202.232L383.214 202.212L306.787 202.207Z"/>
	<path fill="#F0B601" transform="matrix(0.312287 -0.00189736 0.00188925 0.310953 0 0.971451)" d="M106.999 48.6084C142.588 46.5878 164.282 88.7819 142.293 114.985C134.624 124.124 123.892 129.477 112.083 130.456C100.689 130.819 89.5631 126.426 81.1562 118.708C54.448 94.1864 71.2403 50.0277 106.999 48.6084Z"/>
	<path fill="#AACCD3" transform="matrix(0.312287 -0.00189736 0.00188925 0.310953 0 0.971451)" d="M411.767 202.202L419.22 289.559L426.566 385.211L427.353 408.035C427.369 409.063 427.544 410.363 427.317 411.359L392.109 411.73L398.258 411.545L383.28 202.282L403.52 202.232C406.128 202.229 409.206 202.554 411.767 202.202Z"/>
	<path fill="#C6DAE0" transform="matrix(0.312287 -0.00189736 0.00188925 0.310953 0 0.971451)" d="M354.442 13.8391C368.877 12.6577 374.783 19.5918 381.07 31.187C384.747 37.9684 390.066 43.4202 395.482 48.8121C397.595 50.916 397.565 51.392 400.455 51.3466L439.142 51.1805C441.943 51.1734 444.809 51.0333 447.513 51.883C472.964 59.8781 475.568 95.1885 453.008 106.102L452.552 106.316C445.293 109.89 438.023 109.303 430.185 109.291L405.375 109.244L359.748 109.144C358.905 108.237 358.776 107.472 358.233 106.429C350.656 91.8525 335.713 78.6309 318.686 77.9343C316.435 77.8422 314 77.8804 311.829 77.2306L310.48 76.8338C296.281 72.6899 288.122 54.6172 296.517 41.8244L296.741 41.5C303.872 30.9824 317.964 27.6975 329.25 33.0166C331.422 34.0401 330.952 34.0752 332.12 32.0119C336.263 24.6999 341.422 17.4157 349.98 14.9697L354.442 13.8391Z"/>
	<path fill="#08BE04" transform="matrix(0.312287 -0.00189736 0.00188925 0.310953 0 0.971451)" d="M443.855 412.324L488.5 411.688C498.752 411.601 497.784 414.836 497.77 422.596L497.834 489.25C497.686 496.629 488.56 495.311 483.715 495.269L294.454 494.932C295.445 492.277 299.785 489.909 302.001 488.371L341.564 458.144C366.325 440.975 392.68 427.4 421.771 419.356L431.793 416.781C435.114 416.022 441.708 415.267 443.855 412.324Z"/>
	<path fill="#C6DAE0" transform="matrix(0.312287 -0.00189736 0.00188925 0.310953 0 0.971451)" d="M306.674 202.285L383.214 202.209L398.258 411.545L392.109 411.724L274.638 411.7L289.524 411.519L306.674 202.285Z"/>
	<path fill="#2275E3" transform="matrix(0.312287 -0.00189736 0.00188925 0.310953 0 0.971451)" d="M60.7613 411.713L60.1639 350.091C56.8557 351.946 52.5637 353.935 48.7567 354.144C36.7457 348.942 53.8716 340.211 58.4351 337.175L118.79 296.625C130.922 288.557 143.358 280.77 154.972 271.964C156.57 271.771 164.687 277.28 166.581 278.487L251.129 334.338C255.948 337.47 265.266 341.667 267.649 347.142C264.624 356.584 258.985 350.775 253.201 347.821C252.106 347.261 250.443 346.86 249.65 345.942L249.833 411.597L188.385 412.248L133.823 412.269C130.479 412.262 127.099 412.346 123.774 411.976L60.7613 411.713Z"/>
	<path fill="#373436" transform="matrix(0.312287 -0.00189736 0.00188925 0.310953 0 0.971451)" d="M152.407 314.811C179.038 312.005 183.324 355.621 156.395 358.767C127.979 358.96 124.471 320.053 152.407 314.811Z"/>
	<path fill="#283C7F" transform="matrix(0.312287 -0.00189736 0.00188925 0.310953 0 0.971451)" d="M123.774 411.976L123.727 383.159C123.721 377.556 121.06 368.221 128.331 366.955C133.642 366.03 139.613 366.525 144.998 366.522L171.606 366.684C176.559 366.851 182.335 366.9 186.998 368.57C187.731 369.543 187.619 370.04 187.629 371.282L187.718 403.756C187.782 406.602 188.012 409.481 188.343 412.307L133.823 412.269C130.479 412.262 127.099 412.346 123.774 411.976Z"/>
	<defs>
		<linearGradient id="gradient_1" gradientUnits="userSpaceOnUse" x1="326.07355" y1="307.26324" x2="93.271645" y2="562.55304">
			<stop offset="0" stop-color="#45C200"/>
			<stop offset="1" stop-color="#97DF14"/>
		</linearGradient>
	</defs>
	<path fill="url(#gradient_1)" transform="matrix(0.312287 -0.00189736 0.00188925 0.310953 0 0.971451)" d="M427.522 411.331C429.066 411.757 438.341 412.272 439.916 411.532L440.216 411.727C441.391 412.434 442.527 412.33 443.855 412.324C441.708 415.267 435.114 416.022 431.793 416.781L421.771 419.356C392.68 427.4 366.325 440.975 341.564 458.144L302.001 488.371C299.785 489.909 295.445 492.277 294.454 494.726L23.9159 494.974C20.2443 494.979 17.2662 495.41 15.3068 491.61L15.0081 491.055C14.5634 490.246 14.5423 489.166 14.5116 488.257L14.4857 425.144C14.3938 416.832 13.5051 411.66 23.4485 411.692L60.7613 411.728L123.774 411.736C127.099 412.346 130.479 412.262 133.823 412.269L188.385 412.298L250.082 411.675L274.638 411.712L392.109 411.733L427.522 411.331Z"/>
</svg>
