<?xml version="1.0" encoding="utf-8" ?>
<svg xmlns="http://www.w3.org/2000/svg" xmlns:xlink="http://www.w3.org/1999/xlink" width="160" height="160">
	<path fill="#65FD6B" transform="matrix(0.312287 -0.00189736 0.00188925 0.310953 0 0.971451)" d="M243.606 7.27333C283.741 6.41451 317.092 11.0326 354.699 27.0136L369.57 34.1752C402.476 50.8851 432.161 74.7412 454.36 104.348L463.301 117.429C472.912 131.825 481.242 146.892 487.591 163.023C536.331 286.85 479.317 432.484 354.949 484.375L335.978 491.761C314.684 498.947 290.983 503.638 268.438 504.292C268.177 504.364 267.277 504.455 266.95 504.456L248.125 504.48C178.12 504.423 103.243 466.541 60.7582 411.765L51.3446 398.39C25.5397 360.556 10.4603 318.163 7.50678 272.193L7.2646 255.641C7.27745 250.067 7.20998 244.434 7.63418 238.875L8.31141 232.995C12.0455 191.057 25.59 152.718 48.722 117.5C83.184 65.0323 134.171 30.0765 194.47 14.8954C205.687 12.0714 217.054 9.7135 228.551 8.37187L243.606 7.27333Z"/>
	<path fill="#1A2C3F" transform="matrix(0.312287 -0.00189736 0.00188925 0.310953 0 0.971451)" d="M352.968 182.234L353.096 181.974C354.204 179.625 354.818 176.96 355.523 174.466L359.149 159.849C363.827 136.706 367.915 127.397 394.912 127.344L416.738 127.273C428.567 127.015 425.692 135.03 421.441 135.88C419.085 136.351 416.155 136.009 413.731 135.995L396.532 135.954C379.94 135.976 373.358 137.396 368.202 155.5L363.729 173C362.492 177.844 357.761 196.338 355.045 200.283C361.053 200.301 375.106 197.987 374.784 206.935L374.761 207.276C373.153 207.706 371.206 207.333 369.551 207.263L161.035 207.09C158.829 207.031 156.68 206.576 154.5 206.505C147.961 206.293 141.176 206.991 134.689 206.274C134.872 198.615 152.354 200.532 157.196 200.134L157.822 198.59C158.662 195.971 160.281 192.575 161.738 190.267L161.889 190.032C161.321 191.933 159.292 198.424 158.427 199.975L158.321 200.157C159.096 200.472 160.571 200.289 161.444 200.29L330.469 200.267C335.94 200.262 341.666 200.613 347.091 199.947C348.081 196.723 352.247 188.575 351.266 185.744L351.953 185.617C352.631 184.65 352.869 183.394 352.968 182.234Z"/>
	<path fill="#FFC135" transform="matrix(0.312287 -0.00189736 0.00188925 0.310953 0 0.971451)" d="M166.922 176.235C168.645 161.104 182.111 150.402 194.56 143.437C171.438 112.882 210.208 80.9082 235.485 106.098C241.65 104.236 249.296 107.82 254.455 110.947C260.168 114.41 257.482 115.407 262.777 112.172C279.756 101.796 296.767 111.014 307.657 125.71C309.367 127.471 310.927 129.659 311.982 131.873C315.41 134.403 319.125 139.283 319.918 143.54L319.934 143.66C329.918 153.214 344.906 170.408 352.968 182.234C352.869 183.394 352.631 184.65 351.953 185.617L351.266 185.744C352.247 188.575 348.081 196.723 347.091 199.947C341.666 200.613 335.94 200.262 330.469 200.267L161.444 200.29C160.571 200.289 159.096 200.472 158.321 200.157L158.427 199.975C159.292 198.424 161.321 191.933 161.889 190.032C162.011 189.937 166.076 181.054 166.788 179.694L166.922 176.235Z"/>
	<path fill="#151621" transform="matrix(0.312287 -0.00189736 0.00188925 0.310953 0 0.971451)" d="M307.657 125.71C309.367 127.471 310.927 129.659 311.982 131.873L311.311 131.856C309.021 131.714 306.997 128.968 305.568 127.364C306.397 127.442 306.508 127.99 307.501 127.751L307.657 125.71Z"/>
	<path fill="#500B3C" transform="matrix(0.312287 -0.00189736 0.00188925 0.310953 0 0.971451)" d="M166.922 176.235L167.038 176.192C167.453 176.022 167.82 175.798 168.275 175.841L168.534 175.875C169.44 175.871 170.085 175.046 170.682 174.459L170.678 174.941C170.74 176.52 172.983 177.868 172.283 179.375C170.348 180.203 168.791 179.817 166.788 179.694L166.922 176.235Z"/>
	<path fill="#500B3C" transform="matrix(0.312287 -0.00189736 0.00188925 0.310953 0 0.971451)" d="M223.004 141.875C227.241 140.909 226.922 147.241 223.625 148.777C219.123 150.526 220.533 144.713 223.004 141.875Z"/>
	<path fill="#500B3C" transform="matrix(0.312287 -0.00189736 0.00188925 0.310953 0 0.971451)" d="M293.732 173.125L295.092 174.483C296.317 176.454 303.156 186.823 299.875 188.748C294.485 188.096 291.389 177.762 293.732 173.125Z"/>
	<path fill="#500B3C" transform="matrix(0.312287 -0.00189736 0.00188925 0.310953 0 0.971451)" d="M285.415 145.599C288.611 147.458 294.199 154.78 297.787 158.209L295.977 160.401L294.117 162.422C290.134 157.478 286.528 151.92 285.415 145.599Z"/>
	<path fill="#500B3C" transform="matrix(0.312287 -0.00189736 0.00188925 0.310953 0 0.971451)" d="M323.748 174.375C328.773 172.504 335.958 182.917 330.375 185.601C328.759 185.918 328.113 184.846 327.688 183.427C326.699 180.123 318.089 177.448 323.748 174.375Z"/>
	<path fill="#500B3C" transform="matrix(0.312287 -0.00189736 0.00188925 0.310953 0 0.971451)" d="M252.85 148.61C260.653 148.846 262.995 155.31 256.848 154.652L252.188 154.398C237.429 154.145 244.429 149.335 252.85 148.61Z"/>
	<path fill="#341B33" transform="matrix(0.312287 -0.00189736 0.00188925 0.310953 0 0.971451)" d="M260.925 172.375L261.589 172.343C263.058 173.823 263.348 175.895 264.619 177.482C266.408 179.714 273.888 183.35 269.334 187.625C266.771 188.964 264.753 185.442 263.462 183.75L260.017 179.548C259.845 178.091 260.159 173.374 260.925 172.375Z"/>
	<path fill="#341B33" transform="matrix(0.312287 -0.00189736 0.00188925 0.310953 0 0.971451)" d="M196.854 173.625C200.368 173.351 202.402 183.796 209.25 179.023C210.451 178.186 211.799 176.533 213.305 176.661C214.827 177.678 214.748 178.902 213.921 180.434L213.739 180.637C206.21 188.856 201.413 185.788 197.762 176.913C197.325 175.852 196.783 174.794 196.854 173.625Z"/>
	<path fill="#151621" transform="matrix(0.312287 -0.00189736 0.00188925 0.310953 0 0.971451)" d="M319.934 143.66C329.918 153.214 344.906 170.408 352.968 182.234C352.869 183.394 352.631 184.65 351.953 185.617L351.266 185.744C350.254 184.938 349.353 183.575 348.541 182.562L321.777 150.041C320.219 148.014 318.912 146.251 319.934 143.66Z"/>
	<path fill="#19193B" transform="matrix(0.312287 -0.00189736 0.00188925 0.310953 0 0.971451)" d="M166.922 176.235C168.645 161.104 182.111 150.402 194.56 143.437C171.438 112.882 210.208 80.9082 235.485 106.098C241.65 104.236 249.296 107.82 254.455 110.947C260.168 114.41 257.482 115.407 262.777 112.172C279.756 101.796 296.767 111.014 307.657 125.71L307.501 127.751C306.508 127.99 306.397 127.442 305.568 127.364C298.93 121.43 293.523 114.644 284.5 112.218L284.036 112.09C277.872 110.425 271.43 111.888 266.005 115.057L260.241 119.1C253.567 114.676 245.631 107.388 237.099 108.669C237.225 110.475 237.461 112.349 237.375 114.154L237 114.499C234.042 113.99 230.524 103.592 218.859 101.479C198.185 97.7338 183.671 121.271 195.682 137.952C197.096 139.915 199.007 141.742 200.227 143.807L201.488 145.674C199.648 145.799 197.296 145.713 195.625 146.484L195.347 146.609C192.204 148.126 189.209 151.286 186.623 153.648C181.186 158.613 171.485 166.642 170.682 174.459C170.085 175.046 169.44 175.871 168.534 175.875L168.275 175.841C167.82 175.798 167.453 176.022 167.038 176.192L166.922 176.235Z"/>
	<path fill="#1C3952" transform="matrix(0.312287 -0.00189736 0.00188925 0.310953 0 0.971451)" d="M135.789 227.458C139.633 225.698 146.452 226.782 150.659 226.778L159.523 226.775C160.868 226.78 162.745 226.577 164 227.055C166.673 228.072 166.161 231.384 164.07 232.63L155.421 234.582L156.782 243.714L167.708 319.274L176.716 322.752C177.034 322.919 177.478 323.237 177.831 323.259C180.537 324.893 183.287 327.034 185.596 329.188C191.115 333.708 195.169 339.907 198.757 346C199.584 347.403 200.175 349.343 201.095 350.59C201.913 349.858 202.683 349.044 203.707 348.615C204.157 348.483 204.671 347.904 205.032 347.597L208.214 344.875C211.304 342.296 214.817 340.012 217.711 337.249L218.077 336.688C223.345 331.099 233.697 321.19 241.786 321.031C243.881 320.99 246.02 321.219 248.128 321.227L263.146 321.229C267.487 321.215 270.127 320.791 273.875 323.303C279.547 327.105 284.72 332.102 289.926 336.526L310.005 353.832L313.986 344.634C320.979 331.152 331.3 323.255 345.375 318.737L345.706 317.975C345.757 318.438 345.72 318.519 346 318.916L349.713 318.623C351.023 318.398 352.17 318.081 352.954 316.962C353.937 317.693 358.271 316.759 359.75 316.782C393.894 317.295 416.897 352.213 407.639 384.634C394.859 429.396 334.94 433.646 314.184 393.81C312.074 389.761 310.611 384.657 308.733 381.185L203.716 381.05C203.194 382.379 203.08 383.812 202.636 385.171C192.074 417.523 154.464 431.271 125.75 413.347C89.007 390.41 96.4551 332.512 137.48 319.698C144.664 317.453 151.618 317.153 159.072 317.021L151.391 260.905C150.071 252.136 149.291 243.149 147.034 234.563C138.551 233.145 137.809 234.543 135.789 227.458Z"/>
	<path fill="#1A2C3F" transform="matrix(0.312287 -0.00189736 0.00188925 0.310953 0 0.971451)" d="M331.47 364.769C331.646 362.811 332.311 359.801 333.75 358.342L334.439 358.543C333.636 360.538 332.83 362.58 332.555 364.727L331.47 364.769Z"/>
	<path fill="#151621" transform="matrix(0.312287 -0.00189736 0.00188925 0.310953 0 0.971451)" d="M331.47 364.769L332.555 364.727C331.539 371.603 333.634 377.76 336.905 383.719C336.679 383.98 336.827 383.834 336.427 384.118L335.875 383.492C332.109 378.697 330.703 370.691 331.47 364.769Z"/>
	<path fill="#1A2C3F" transform="matrix(0.312287 -0.00189736 0.00188925 0.310953 0 0.971451)" d="M167.708 319.274L176.716 322.752C177.034 322.919 177.478 323.237 177.831 323.259C180.537 324.893 183.287 327.034 185.596 329.188C183.948 329.932 183.429 328.746 182.04 327.639C177.911 324.344 172.888 322.399 167.799 321.029L167.375 320.918C167.264 320.145 167.402 319.971 167.708 319.274Z"/>
	<path fill="white" transform="matrix(0.312287 -0.00189736 0.00188925 0.310953 0 0.971451)" d="M217.711 337.249L218.064 337.216L218.489 337.875C217.905 339.065 217.064 340.129 216.31 341.217L208.922 347.862C206.894 349.727 204.603 352.314 202.125 353.527C200.057 352.295 202.711 349.614 203.707 348.615C204.157 348.483 204.671 347.904 205.032 347.597L208.214 344.875C211.304 342.296 214.817 340.012 217.711 337.249Z"/>
	<path fill="#9BF2E4" transform="matrix(0.312287 -0.00189736 0.00188925 0.310953 0 0.971451)" d="M218.064 337.216C222.753 333.626 238.349 322.214 242.061 323.692L242.06 324.039C240.576 325.352 238.681 326.278 236.981 327.291L221.601 337.974C220.036 339.148 218.254 340.779 216.31 341.217C217.064 340.129 217.905 339.065 218.489 337.875L218.064 337.216Z"/>
	<path fill="#9CD389" transform="matrix(0.312287 -0.00189736 0.00188925 0.310953 0 0.971451)" d="M288.59 359.431L296.75 359.302C298.268 359.28 300.076 359.061 301.519 359.599L303.625 360.508C304.287 360.891 304.589 361.152 304.821 361.875L304.468 362.46C300.979 364.506 279.443 363.308 274.291 363.312L222.064 363.308L211.632 363.311C209.787 363.308 207.532 363.533 205.763 363.005L205.708 362.5C207.463 357.736 216.181 359.451 220.325 359.445L288.59 359.431Z"/>
	<path fill="#9CD389" transform="matrix(0.312287 -0.00189736 0.00188925 0.310953 0 0.971451)" d="M206.847 368.321L293.409 368.438C298.967 368.45 302.966 366.741 305.862 372.291L302.801 372.962C297.129 373.737 291.312 373.197 285.609 373.431C283.626 373.513 281.738 374.05 279.755 374.109L205.27 374.288C205.243 372.445 205.51 370.44 205.836 368.625L206.847 368.321Z"/>
	<path fill="#C2BC74" transform="matrix(0.312287 -0.00189736 0.00188925 0.310953 0 0.971451)" d="M251.766 328.292L263.855 328.261C265.949 328.263 268.046 327.698 269.798 329.092C276.33 334.29 282.193 340.21 288.3 345.884L292.85 350.064C294.18 351.291 295.534 353.401 297.126 354.124L255.312 354.159L229.848 354.161C223.437 354.157 217.426 353.503 211.321 355.791C213.618 353.358 216.39 351.153 218.863 348.888L233.674 335.674C240.973 329.686 242.424 328.556 251.766 328.292Z"/>
	<path fill="#C2BC74" transform="matrix(0.312287 -0.00189736 0.00188925 0.310953 0 0.971451)" d="M334.439 358.543C335.519 356.613 336.627 354.663 338.036 352.952C361.391 324.574 400.677 359.727 378.231 386.569C367.745 399.11 348.52 398.376 338.375 385.623C338.184 385.382 337.063 383.754 336.905 383.719C333.634 377.76 331.539 371.603 332.555 364.727C332.83 362.58 333.636 360.538 334.439 358.543Z"/>
	<path fill="#C2BC74" transform="matrix(0.312287 -0.00189736 0.00188925 0.310953 0 0.971451)" d="M150.406 343.089C186.234 339.281 189.427 391.363 157.231 395.512C142.262 397.619 129.636 386.518 127.413 371.994C125.266 357.975 136.791 344.906 150.406 343.089Z"/>
	<path fill="#C2BC74" transform="matrix(0.312287 -0.00189736 0.00188925 0.310953 0 0.971451)" d="M134.599 206.172C141.176 206.991 147.961 206.293 154.5 206.505C156.68 206.576 158.829 207.031 161.035 207.09L369.551 207.263C371.206 207.333 373.153 207.706 374.761 207.325C376.903 208.752 376.674 209.403 375.967 211.875L375.17 215.17C375.063 215.931 374.786 216.594 374.709 217.375L374.487 224.473C374.268 232.175 368.887 233.266 362.126 234.265C361.274 234.391 361.621 236.537 361.565 237.308L352.954 316.962C352.17 318.081 351.023 318.398 349.713 318.623L346 318.916C345.72 318.519 345.757 318.438 345.706 317.975L345.375 318.737C331.3 323.255 320.979 331.152 313.986 344.634L310.005 353.832L289.926 336.526C284.72 332.102 279.547 327.105 273.875 323.303C270.127 320.791 267.487 321.215 263.146 321.229L248.128 321.227C246.02 321.219 243.881 320.99 241.786 321.031C233.697 321.19 223.345 331.099 218.077 336.688L217.711 337.249C214.817 340.012 211.304 342.296 208.214 344.875L205.032 347.597C204.671 347.904 204.157 348.483 203.707 348.615C202.683 349.044 201.913 349.858 201.095 350.59C200.175 349.343 199.584 347.403 198.757 346C195.169 339.907 191.115 333.708 185.596 329.188C183.287 327.034 180.537 324.893 177.831 323.259C177.478 323.237 177.034 322.919 176.716 322.752L167.708 319.274L156.826 243.714L155.421 234.582L164.07 232.63C166.161 231.384 166.673 228.072 164 227.055C162.745 226.577 160.868 226.78 159.523 226.775L150.659 226.778C146.452 226.782 139.633 225.698 135.789 227.316C132.741 224.398 134.373 211.174 134.599 206.172Z"/>
	<path fill="#151621" transform="matrix(0.312287 -0.00189736 0.00188925 0.310953 0 0.971451)" d="M176.716 322.752C178.681 320.59 186.684 318.504 189.211 318.818C189.938 319.903 189.806 321.462 188.276 321.212C185.391 320.741 180.657 322.402 177.831 323.259C177.478 323.237 177.034 322.919 176.716 322.752Z"/>
	<path fill="#ECD048" transform="matrix(0.312287 -0.00189736 0.00188925 0.310953 0 0.971451)" d="M156.782 243.714L155.421 234.582L164.07 232.63C168.847 235.198 173.399 238.17 166.25 241.631L165.11 242.204C164.597 242.461 164.031 242.636 163.5 242.878L162.446 243.319C160.486 244.181 158.822 243.59 156.782 243.714Z"/>
	<path fill="#1A2C3F" transform="matrix(0.312287 -0.00189736 0.00188925 0.310953 0 0.971451)" d="M345.706 317.975C345.785 315.886 346.189 313.803 346.431 311.727L352.944 251.803C353.268 248.29 354.619 237.244 353.636 234.026C348.912 233.559 343.972 233.426 339.336 232.412C333.63 227.451 343.92 227.375 346.875 227.229L371.059 226.761C368.829 227.583 368.393 229.244 365.51 229.37L366 229.641C376.677 228.552 372.826 225.106 374.709 217.375L374.487 224.473C374.268 232.175 368.887 233.266 362.126 234.265C361.274 234.391 361.621 236.537 361.565 237.308L352.954 316.962C352.17 318.081 351.023 318.398 349.713 318.623L346 318.916C345.72 318.519 345.757 318.438 345.706 317.975Z"/>
	<path fill="#19193B" transform="matrix(0.312287 -0.00189736 0.00188925 0.310953 0 0.971451)" d="M201.4 226.819L314.923 227.225C316.425 227.234 320.606 226.807 321.515 228.339C321.736 233.24 320.043 238.431 319.407 243.314C317.717 256.276 316.781 269.546 314.313 282.375C313.084 288.762 311.946 293.511 304.785 294.918C302.192 295.295 299.525 295.175 296.915 295.176L211.298 295.523C209.439 295.522 207.116 295.786 205.319 295.387C194.822 293.053 193.812 274.611 192.209 266.441L186.751 235.125C186.458 233.426 186.119 231.296 185.161 229.838C182.781 226.217 199.907 226.824 201.4 226.819Z"/>
	<path fill="#ECD048" transform="matrix(0.312287 -0.00189736 0.00188925 0.310953 0 0.971451)" d="M305.094 232.496L316.017 232.406C315.742 233.357 315.778 234.448 315.683 235.435L310.777 273.75C310.088 278.121 310.032 289.215 303.965 289.517L219.62 289.572C215.907 289.578 206.238 290.939 203.593 288.565C198.979 281.28 198.522 270.797 197.105 262.512L192.176 232.95L305.094 232.496Z"/>
	<path fill="#19193B" transform="matrix(0.312287 -0.00189736 0.00188925 0.310953 0 0.971451)" d="M295.262 273.61L299.823 273.231L299.314 279.273L213.187 278.941C208.328 279.337 208.665 278.662 208.442 273.985C211.56 273.504 215.022 273.727 218.175 273.722L295.262 273.61Z"/>
	<path fill="#19193B" transform="matrix(0.312287 -0.00189736 0.00188925 0.310953 0 0.971451)" d="M301.511 257.541C302.272 257.337 302.904 257.126 303.505 257.625L303.138 263.003L206.46 263.621C204.704 263.229 204.379 260.505 204.574 258.928C211.3 258.047 217.858 258.398 224.598 258.129L301.511 257.541Z"/>
	<path fill="#19193B" transform="matrix(0.312287 -0.00189736 0.00188925 0.310953 0 0.971451)" d="M300.158 242.227L305.223 241.908C305.129 243.18 305.208 246.127 304.47 247.13L205.529 248.018L202.494 247.545C199.804 243.14 199.83 242.693 204.933 242.446L300.158 242.227Z"/>
</svg>
