<?xml version="1.0" encoding="utf-8" ?>
<svg xmlns="http://www.w3.org/2000/svg" xmlns:xlink="http://www.w3.org/1999/xlink" width="160" height="160">
	<path fill="#495E82" transform="matrix(0.312287 -0.00189736 0.00188925 0.310953 0 0.971451)" d="M80.0897 13.847C92.4607 12.6929 97.1956 23.0186 97.2212 33.4516L97.213 54.493C97.1797 66.0092 95.1874 74.9081 82.3652 77.3236C74.156 77.6491 66.2603 72.922 65.0839 64.2601L65.0335 63.875C64.6171 61.0195 64.6962 58.1483 64.6922 55.2689L64.6915 43.3435C64.696 36.6988 63.2075 27.7783 67.0217 21.8604L67.7271 20.7763C70.9252 16.6164 75.0521 14.659 80.0897 13.847Z"/>
	<path fill="#495E82" transform="matrix(0.312287 -0.00189736 0.00188925 0.310953 0 0.971451)" d="M174.913 13.7845C183.301 13.5801 190.321 18.0482 192.519 26.5C193.272 29.3975 192.97 32.9537 192.978 35.9555L193.003 50.7163C193.053 62.5275 194.457 73.7233 179.097 77.0502C171.546 78.5615 162.512 72.6185 160.745 65.1709C160.322 63.3862 160.466 61.3313 160.46 59.5037L160.451 36.1239C160.482 24.6046 162.315 16.6615 174.913 13.7845Z"/>
	<path fill="#495E82" transform="matrix(0.312287 -0.00189736 0.00188925 0.310953 0 0.971451)" d="M105.963 95.0374L171.993 95.0296C181.333 95.0362 190.355 95.756 192.637 107.606C193.65 112.871 192.934 118.665 193.123 124.016C193.263 128.01 194.014 132.07 194.297 136.077L196.453 189.364L199.263 230.875C199.723 239.372 199.793 247.86 200.82 256.328L214.879 254.527C216.396 254.352 218.28 254.481 219.706 254.008L219.996 251.697C224.413 216.921 267.678 207.685 287.419 234.652C287.998 235.443 288.643 236.229 288.913 237.184L289.109 237.773C289.984 239.723 290.188 239.592 292.184 239.578C297.054 239.541 301.613 239.664 306.287 241.206L306.694 241.342C315.426 244.221 325.467 251.167 329.732 259.514L329.832 259.713C335.554 256.93 341.89 254.86 348.093 253.44C348.7 249.879 349.153 246.612 350.37 243.171C360.521 214.469 396.473 211.509 414.679 235.065C415.9 236.645 416.91 238.42 417.994 240.098L420.597 239.81C431.765 239.343 442.653 242.672 450.94 250.379C464.475 262.968 465.008 272.498 465.006 289.572L465.137 398.473C472.989 397.403 487.711 397.375 492.818 403.581L493.086 403.914C495.254 406.565 496.737 409.925 496.859 413.372L496.811 480.472C496.728 481.94 496.518 483.574 495.91 484.926L494.505 487.812C492.116 491.771 488.26 493.813 483.877 494.831C479.53 495.587 474.851 495.243 470.448 495.244L36.1893 495.301C33.3219 495.322 29.6166 495.807 26.9042 494.882L26.5 494.735C15.345 490.788 15.4707 481.798 15.4857 471.852L15.5654 413.697C15.8463 408.238 18.8521 402.536 23.8725 400.069L24.1778 399.922C27.8281 398.119 32.0794 398.626 36.0501 398.63L46.7047 398.734C47.3973 393.069 47.078 387.482 47.4897 381.826L50.7174 329L57.7108 220.375L64.5507 121.09C64.8299 116.31 64.1519 111.121 65.2939 106.47C68.1695 94.7574 77.3745 95.0835 86.5984 95.0629L105.963 95.0374Z"/>
	<path fill="#478E50" transform="matrix(0.312287 -0.00189736 0.00188925 0.310953 0 0.971451)" d="M388.375 260.06L390.184 259.96C399.853 259.617 397.652 271.997 404.261 277.836C411.534 284.262 422.681 275.357 429.834 282.283C433.831 286.154 432.464 292.56 432.464 297.549L432.445 398.919L379.955 398.678L335.401 398.791L335.373 317.466C335.374 313.058 335.175 308.519 335.487 304.124C336.3 292.658 350.924 284.997 360.975 284.344C365.149 284.073 369.622 284.791 373.711 283.874C378.852 282.721 384.695 277.773 385.223 272.25C385.84 265.784 380.387 261.527 388.375 260.06Z"/>
	<path fill="#478E50" transform="matrix(0.312287 -0.00189736 0.00188925 0.310953 0 0.971451)" d="M259.149 260.354C272.708 258.182 272.538 264.939 277.762 274.08C282.46 282.298 287.21 275.452 293.859 277.344L294.25 277.461C298.105 278.572 302.897 281.498 303.742 285.723L303.791 286C304.404 289.299 303.379 292.895 303.171 296.21L302.93 398.802L251.375 398.682L209.456 398.806L208.572 370.794C208.145 361.075 207.778 351.195 207.276 341.5C207.177 339.588 206.747 337.726 206.656 335.803L206.153 320.383C205.637 313.441 204.586 306.102 205.238 299.125C205.977 291.22 218.638 286.136 225.177 285.755C228.261 285.576 231.401 285.916 234.489 286.012C250.842 286.521 253.813 275.438 255.201 260.859L259.149 260.354Z"/>
	<path fill="#FCC134" transform="matrix(0.312287 -0.00189736 0.00188925 0.310953 0 0.971451)" d="M47.2512 431.595L452.995 431.508C456.564 431.522 460.938 431.117 464.375 432.05L464.207 462.745L47.2551 462.568L47.2512 431.595Z"/>
	<path fill="#FCC134" transform="matrix(0.312287 -0.00189736 0.00188925 0.310953 0 0.971451)" d="M106.663 128.545L160.305 128.569L176.594 398.685L150.125 398.688L79.6925 398.7L96.5183 128.618L106.663 128.545Z"/>
</svg>
